<svg width="245" height="222" viewBox="0 0 245 222" fill="none" xmlns="http://www.w3.org/2000/svg">
<path d="M96.7482 179.238C143.53 179.238 181.455 141.314 181.455 94.5306C181.455 47.7486 143.53 9.82465 96.7482 9.82465C49.9662 9.82465 12.0422 47.7486 12.0422 94.5306C12.0422 141.314 49.9662 179.238 96.7482 179.238Z" fill="black"/>
<path d="M42.8082 99.3596C43.0734 99.3596 43.3277 99.2543 43.5153 99.0668C43.7028 98.8792 43.8082 98.6249 43.8082 98.3596C43.8082 98.0944 43.7028 97.8401 43.5153 97.6525C43.3277 97.465 43.0734 97.3596 42.8082 97.3596C42.5429 97.3596 42.2886 97.465 42.101 97.6525C41.9135 97.8401 41.8082 98.0944 41.8082 98.3596C41.8082 98.6249 41.9135 98.8792 42.101 99.0668C42.2886 99.2543 42.5429 99.3596 42.8082 99.3596ZM43.9081 121.14C44.1734 121.14 44.4277 121.034 44.6152 120.847C44.8028 120.659 44.9081 120.405 44.9081 120.14C44.9081 119.874 44.8028 119.62 44.6152 119.433C44.4277 119.245 44.1734 119.14 43.9081 119.14C43.6429 119.14 43.3886 119.245 43.201 119.433C43.0135 119.62 42.9081 119.874 42.9081 120.14C42.9081 120.405 43.0135 120.659 43.201 120.847C43.3886 121.034 43.6429 121.14 43.9081 121.14ZM81.7482 94.4007C82.04 94.4005 82.3199 94.2844 82.5262 94.078C82.7325 93.8715 82.8483 93.5915 82.8481 93.2997C82.848 93.0078 82.7319 92.7279 82.5255 92.5216C82.319 92.3153 82.039 92.1995 81.7471 92.1997C81.4553 92.1998 81.1754 92.3159 80.9691 92.5223C80.7628 92.7288 80.647 93.0088 80.6471 93.3007C80.6473 93.5925 80.7634 93.8724 80.9698 94.0787C81.1763 94.285 81.4563 94.4008 81.7482 94.4007ZM163.368 103.761C163.633 103.761 163.888 103.655 164.075 103.468C164.263 103.28 164.368 103.026 164.368 102.761C164.368 102.495 164.263 102.241 164.075 102.054C163.888 101.866 163.633 101.761 163.368 101.761C163.103 101.761 162.849 101.866 162.661 102.054C162.474 102.241 162.368 102.495 162.368 102.761C162.368 103.026 162.474 103.28 162.661 103.468C162.849 103.655 163.103 103.761 163.368 103.761ZM157.648 111.241C157.913 111.241 158.168 111.135 158.355 110.948C158.543 110.76 158.648 110.506 158.648 110.241C158.648 109.975 158.543 109.721 158.355 109.534C158.168 109.346 157.913 109.241 157.648 109.241C157.383 109.241 157.129 109.346 156.941 109.534C156.754 109.721 156.648 109.975 156.648 110.241C156.648 110.506 156.754 110.76 156.941 110.948C157.129 111.135 157.383 111.241 157.648 111.241ZM36.2081 120.04C36.4734 120.04 36.7277 119.934 36.9153 119.747C37.1028 119.559 37.2081 119.305 37.2081 119.04C37.2081 118.774 37.1028 118.52 36.9153 118.333C36.7277 118.145 36.4734 118.04 36.2081 118.04C35.9429 118.04 35.6886 118.145 35.501 118.333C35.3135 118.52 35.2081 118.774 35.2081 119.04C35.2081 119.305 35.3135 119.559 35.501 119.747C35.6886 119.934 35.9429 120.04 36.2081 120.04ZM70.9682 73.8397C71.2334 73.8397 71.4877 73.7343 71.6752 73.5468C71.8628 73.3592 71.9682 73.1049 71.9682 72.8397C71.9682 72.5744 71.8628 72.3201 71.6752 72.1325C71.4877 71.945 71.2334 71.8397 70.9682 71.8397C70.7029 71.8397 70.4486 71.945 70.261 72.1325C70.0735 72.3201 69.9682 72.5744 69.9682 72.8397C69.9682 73.1049 70.0735 73.3592 70.261 73.5468C70.4486 73.7343 70.7029 73.8397 70.9682 73.8397ZM36.6481 84.8397C36.9134 84.8397 37.1677 84.7343 37.3553 84.5468C37.5428 84.3592 37.6481 84.1049 37.6481 83.8397C37.6481 83.5744 37.5428 83.3201 37.3553 83.1326C37.1677 82.945 36.9134 82.8397 36.6481 82.8397C36.3829 82.8397 36.1286 82.945 35.941 83.1326C35.7535 83.3201 35.6481 83.5744 35.6481 83.8397C35.6481 84.1049 35.7535 84.3592 35.941 84.5468C36.1286 84.7343 36.3829 84.8397 36.6481 84.8397ZM71.6281 81.9797C71.8934 81.9797 72.1477 81.8743 72.3353 81.6868C72.5228 81.4992 72.6281 81.2449 72.6281 80.9797C72.6281 80.7144 72.5228 80.4601 72.3353 80.2726C72.1477 80.085 71.8934 79.9797 71.6281 79.9797C71.3629 79.9797 71.1086 80.085 70.921 80.2726C70.7335 80.4601 70.6281 80.7144 70.6281 80.9797C70.6281 81.2449 70.7335 81.4992 70.921 81.6868C71.1086 81.8743 71.3629 81.9797 71.6281 81.9797ZM60.6281 98.2607C60.8934 98.2607 61.1477 98.1553 61.3353 97.9678C61.5228 97.7802 61.6281 97.5259 61.6281 97.2607C61.6281 96.9954 61.5228 96.7411 61.3353 96.5535C61.1477 96.366 60.8934 96.2607 60.6281 96.2607C60.3629 96.2607 60.1086 96.366 59.921 96.5535C59.7335 96.7411 59.6281 96.9954 59.6281 97.2607C59.6281 97.5259 59.7335 97.7802 59.921 97.9678C60.1086 98.1553 60.3629 98.2607 60.6281 98.2607ZM94.7281 98.4797C94.9934 98.4797 95.2477 98.3743 95.4353 98.1868C95.6228 97.9992 95.7281 97.7449 95.7281 97.4797C95.7281 97.2144 95.6228 96.9601 95.4353 96.7726C95.2477 96.585 94.9934 96.4797 94.7281 96.4797C94.4629 96.4797 94.2086 96.585 94.021 96.7726C93.8335 96.9601 93.7281 97.2144 93.7281 97.4797C93.7281 97.7449 93.8335 97.9992 94.021 98.1868C94.2086 98.3743 94.4629 98.4797 94.7281 98.4797ZM87.0282 48.6397C87.3199 48.6397 87.5997 48.5238 87.806 48.3175C88.0123 48.1112 88.1281 47.8314 88.1281 47.5397C88.1281 47.2479 88.0123 46.9681 87.806 46.7618C87.5997 46.5556 87.3199 46.4397 87.0282 46.4397C86.7364 46.4397 86.4566 46.5556 86.2503 46.7618C86.044 46.9681 85.9281 47.2479 85.9281 47.5397C85.9281 47.8314 86.044 48.1112 86.2503 48.3175C86.4566 48.5238 86.7364 48.6397 87.0282 48.6397ZM79.5481 65.7997C79.8399 65.7997 80.1197 65.6838 80.326 65.4775C80.5322 65.2712 80.6481 64.9914 80.6481 64.6997C80.6481 64.4079 80.5322 64.1281 80.326 63.9218C80.1197 63.7155 79.8399 63.5997 79.5481 63.5997C79.2564 63.5997 78.9766 63.7155 78.7703 63.9218C78.564 64.1281 78.4482 64.4079 78.4482 64.6997C78.4482 64.9914 78.564 65.2712 78.7703 65.4775C78.9766 65.6838 79.2564 65.7997 79.5481 65.7997ZM116.948 54.7997C117.24 54.7997 117.52 54.6838 117.726 54.4775C117.932 54.2712 118.048 53.9914 118.048 53.6997C118.048 53.4079 117.932 53.1281 117.726 52.9218C117.52 52.7155 117.24 52.5997 116.948 52.5997C116.656 52.5997 116.377 52.7155 116.17 52.9218C115.964 53.1281 115.848 53.4079 115.848 53.6997C115.848 53.9914 115.964 54.2712 116.17 54.4775C116.377 54.6838 116.656 54.7997 116.948 54.7997ZM71.4081 64.1607C71.6734 64.1607 71.9277 64.0553 72.1152 63.8678C72.3028 63.6802 72.4081 63.4259 72.4081 63.1607C72.4081 62.8954 72.3028 62.6411 72.1152 62.4536C71.9277 62.266 71.6734 62.1607 71.4081 62.1607C71.1429 62.1607 70.8886 62.266 70.701 62.4536C70.5135 62.6411 70.4081 62.8954 70.4081 63.1607C70.4081 63.4259 70.5135 63.6802 70.701 63.8678C70.8886 64.0553 71.1429 64.1607 71.4081 64.1607ZM106.168 34.2407C106.433 34.2407 106.688 34.1353 106.875 33.9478C107.063 33.7602 107.168 33.5059 107.168 33.2407C107.168 32.9754 107.063 32.7211 106.875 32.5335C106.688 32.346 106.433 32.2407 106.168 32.2407C105.903 32.2407 105.649 32.346 105.461 32.5335C105.274 32.7211 105.168 32.9754 105.168 33.2407C105.168 33.5059 105.274 33.7602 105.461 33.9478C105.649 34.1353 105.903 34.2407 106.168 34.2407ZM61.2881 93.6396C61.5534 93.6396 61.8077 93.5343 61.9953 93.3468C62.1828 93.1592 62.2881 92.9049 62.2881 92.6396C62.2881 92.3744 62.1828 92.1201 61.9953 91.9326C61.8077 91.745 61.5534 91.6396 61.2881 91.6396C61.0229 91.6396 60.7686 91.745 60.581 91.9326C60.3935 92.1201 60.2881 92.3744 60.2881 92.6396C60.2881 92.9049 60.3935 93.1592 60.581 93.3468C60.7686 93.5343 61.0229 93.6396 61.2881 93.6396ZM53.5882 43.7997C53.8799 43.7997 54.1597 43.6838 54.366 43.4775C54.5723 43.2712 54.6881 42.9914 54.6881 42.6997C54.6881 42.4079 54.5723 42.1281 54.366 41.9218C54.1597 41.7155 53.8799 41.5997 53.5882 41.5997C53.2964 41.5997 53.0166 41.7155 52.8103 41.9218C52.604 42.1281 52.4881 42.4079 52.4881 42.6997C52.4881 42.9914 52.604 43.2712 52.8103 43.4775C53.0166 43.6838 53.2964 43.7997 53.5882 43.7997ZM46.1082 60.9607C46.2527 60.9606 46.3958 60.9321 46.5293 60.8767C46.6627 60.8213 46.784 60.7402 46.8862 60.638C46.9883 60.5357 47.0693 60.4144 47.1246 60.2808C47.1798 60.1473 47.2082 60.0042 47.2081 59.8597C47.2081 59.7151 47.1796 59.572 47.1242 59.4386C47.0688 59.3051 46.9877 59.1838 46.8855 59.0816C46.7832 58.9795 46.6619 58.8985 46.5283 58.8432C46.3948 58.788 46.2517 58.7596 46.1071 58.7597C45.8153 58.7598 45.5354 58.8759 45.3291 59.0823C45.1228 59.2888 45.007 59.5688 45.0071 59.8607C45.0073 60.1525 45.1234 60.4324 45.3298 60.6387C45.5363 60.845 45.8163 60.9608 46.1082 60.9607ZM83.5081 49.9607C83.6527 49.9606 83.7958 49.9321 83.9293 49.8767C84.0628 49.8213 84.184 49.7402 84.2862 49.638C84.3883 49.5357 84.4693 49.4144 84.5246 49.2808C84.5798 49.1473 84.6082 49.0042 84.6082 48.8597C84.6081 48.7151 84.5796 48.572 84.5242 48.4386C84.4688 48.3051 84.3877 48.1838 84.2855 48.0816C84.1832 47.9795 84.0619 47.8985 83.9283 47.8432C83.7948 47.788 83.6517 47.7596 83.5071 47.7597C83.2153 47.7598 82.9354 47.8759 82.7291 48.0823C82.5228 48.2888 82.407 48.5688 82.4072 48.8607C82.4073 49.1525 82.5233 49.4324 82.7298 49.6387C82.9363 49.845 83.2163 49.9608 83.5081 49.9607ZM28.7281 72.5197C28.9934 72.5197 29.2477 72.4143 29.4353 72.2268C29.6228 72.0392 29.7281 71.7849 29.7281 71.5197C29.7281 71.2544 29.6228 71.0001 29.4353 70.8125C29.2477 70.625 28.9934 70.5197 28.7281 70.5197C28.4629 70.5197 28.2086 70.625 28.021 70.8125C27.8335 71.0001 27.7281 71.2544 27.7281 71.5197C27.7281 71.7849 27.8335 72.0392 28.021 72.2268C28.2086 72.4143 28.4629 72.5197 28.7281 72.5197ZM72.7281 29.3997C72.9934 29.3997 73.2477 29.2943 73.4353 29.1068C73.6228 28.9192 73.7281 28.6649 73.7281 28.3997C73.7281 28.1344 73.6228 27.8801 73.4353 27.6926C73.2477 27.505 72.9934 27.3997 72.7281 27.3997C72.4629 27.3997 72.2086 27.505 72.021 27.6926C71.8335 27.8801 71.7281 28.1344 71.7281 28.3997C71.7281 28.6649 71.8335 28.9192 72.021 29.1068C72.2086 29.2943 72.4629 29.3997 72.7281 29.3997ZM71.8481 45.2407C72.1134 45.2407 72.3677 45.1353 72.5553 44.9478C72.7428 44.7602 72.8481 44.5059 72.8481 44.2407C72.8481 43.9754 72.7428 43.7211 72.5553 43.5335C72.3677 43.346 72.1134 43.2407 71.8481 43.2407C71.5829 43.2407 71.3286 43.346 71.141 43.5335C70.9535 43.7211 70.8481 43.9754 70.8481 44.2407C70.8481 44.5059 70.9535 44.7602 71.141 44.9478C71.3286 45.1353 71.5829 45.2407 71.8481 45.2407ZM115.628 46.7807C115.893 46.7807 116.148 46.6753 116.335 46.4878C116.523 46.3002 116.628 46.0459 116.628 45.7807C116.628 45.5154 116.523 45.2611 116.335 45.0735C116.148 44.886 115.893 44.7807 115.628 44.7807C115.363 44.7807 115.109 44.886 114.921 45.0735C114.733 45.2611 114.628 45.5154 114.628 45.7807C114.628 46.0459 114.733 46.3002 114.921 46.4878C115.109 46.6753 115.363 46.7807 115.628 46.7807ZM95.8281 58.6607C96.0934 58.6607 96.3477 58.5553 96.5352 58.3678C96.7228 58.1802 96.8281 57.9259 96.8281 57.6607C96.8281 57.3954 96.7228 57.1411 96.5352 56.9536C96.3477 56.766 96.0934 56.6607 95.8281 56.6607C95.5629 56.6607 95.3086 56.766 95.121 56.9536C94.9335 57.1411 94.8281 57.3954 94.8281 57.6607C94.8281 57.9259 94.9335 58.1802 95.121 58.3678C95.3086 58.5553 95.5629 58.6607 95.8281 58.6607ZM129.928 58.8797C130.193 58.8797 130.448 58.7743 130.635 58.5868C130.823 58.3992 130.928 58.1449 130.928 57.8797C130.928 57.6144 130.823 57.3601 130.635 57.1725C130.448 56.985 130.193 56.8797 129.928 56.8797C129.663 56.8797 129.409 56.985 129.221 57.1725C129.034 57.3601 128.928 57.6144 128.928 57.8797C128.928 58.1449 129.034 58.3992 129.221 58.5868C129.409 58.7743 129.663 58.8797 129.928 58.8797Z" fill="white"/>
<path d="M167.366 158.157L157.994 167.529L180.123 189.659L189.496 180.286L167.366 158.157Z" fill="#541F9D"/>
<path fill-rule="evenodd" clip-rule="evenodd" d="M144.521 165.772L165.902 144.391L175.567 154.056C177.121 155.609 177.993 157.717 177.993 159.914C177.993 162.111 177.121 164.218 175.567 165.772L165.902 175.437C164.348 176.99 162.241 177.863 160.044 177.863C157.847 177.863 155.74 176.99 154.186 175.437L144.521 165.772Z" fill="#BD93F7"/>
<path d="M183.541 175.437L175.567 183.41C169.277 189.701 169.277 199.9 175.567 206.191L208.762 239.385C215.053 245.676 225.252 245.676 231.542 239.385L239.516 231.412C245.806 225.122 245.806 214.922 239.516 208.632L206.321 175.437C200.03 169.147 189.831 169.147 183.541 175.437Z" fill="#BD93F7"/>
<path d="M155.211 155.081C188.291 122.001 188.291 68.3677 155.211 35.2877C122.131 2.20766 68.4982 2.20766 35.4182 35.2877C2.33815 68.3677 2.33815 122.001 35.4182 155.081C68.4982 188.161 122.131 188.161 155.211 155.081Z" stroke="#9854F6" stroke-width="20.711"/>
<mask id="mask0_18006_3366" style="mask-type:alpha" maskUnits="userSpaceOnUse" x="20" y="1" width="194" height="169">
<path d="M95.2721 169.64C136.462 169.64 169.852 136.25 169.852 95.0597C169.852 81.2017 219.337 37.2227 212.752 26.1047C199.766 4.17766 127.735 1.11966 100.404 1.11966C59.2141 1.11966 20.6921 53.8707 20.6921 95.0597C20.6921 136.25 54.0831 169.64 95.2721 169.64Z" fill="white"/>
</mask>
<g mask="url(#mask0_18006_3366)">
<path fill-rule="evenodd" clip-rule="evenodd" d="M191.805 42.0347C192.269 46.3959 191.166 50.7799 188.694 54.4027L150.471 110.43L160.566 131.13C147.853 154.093 123.378 169.641 95.2721 169.641C93.074 169.641 90.8769 169.545 88.6871 169.354L84.4561 159.828L83.0561 168.645C68.7361 166.285 55.7921 159.847 45.4551 150.563L47.7701 126.725C48.0503 123.835 49.0409 121.06 50.6538 118.646C52.2667 116.232 54.4517 114.255 57.0141 112.891L96.9281 91.6317L123.435 68.5187L147.896 47.3097L88.9921 48.6407L88.2191 34.9377L112.83 31.8457L171.475 25.6117C181.624 24.5317 190.726 31.8857 191.805 42.0347Z" fill="white"/>
<path fill-rule="evenodd" clip-rule="evenodd" d="M88.2681 98.0987L79.8401 78.2487L97.9631 70.5587L106.39 90.4077" fill="white"/>
<path d="M88.2681 98.0987L79.8401 78.2487L97.9631 70.5587L106.39 90.4077" stroke="black" stroke-width="1.32" stroke-linecap="round" stroke-linejoin="round"/>
<mask id="mask1_18006_3366" style="mask-type:alpha" maskUnits="userSpaceOnUse" x="79" y="70" width="27" height="32">
<path d="M79.8401 78.2477L97.9611 70.5587L105.121 87.4207C107.246 92.4267 104.913 98.2067 99.9091 100.33C94.9051 102.454 89.1251 100.117 87.0001 95.1107L79.8401 78.2477Z" fill="white"/>
</mask>
<g mask="url(#mask1_18006_3366)">
<path d="M100.379 81.4556C111.683 76.6586 117.251 64.3006 112.816 53.8536C108.38 43.4066 95.6211 38.8266 84.3171 43.6236C73.0131 48.4216 67.4451 60.7786 71.8811 71.2256C76.3161 81.6726 89.0751 86.2526 100.379 81.4556Z" fill="black"/>
</g>
<path d="M75.0751 34.6097L69.9941 36.7667C62.2931 40.0337 58.7021 48.9277 61.9731 56.6307L66.7071 67.7817C69.9781 75.4847 78.8711 79.0797 86.5711 75.8117L91.6521 73.6557C99.3521 70.3877 102.943 61.4947 99.6731 53.7917L94.9381 42.6407C91.6681 34.9377 82.7751 31.3417 75.0751 34.6097Z" fill="black"/>
<path fill-rule="evenodd" clip-rule="evenodd" d="M97.2201 53.3277L98.9451 52.2607C99.4203 51.9671 99.9565 51.7864 100.512 51.7327C101.068 51.679 101.629 51.7535 102.152 51.9507C102.675 52.1479 103.145 52.4624 103.527 52.8699C103.909 53.2775 104.192 53.7673 104.355 54.3017L104.404 54.4607C104.826 55.8414 104.821 57.3174 104.389 58.6952C103.958 60.073 103.12 61.2882 101.986 62.1817L101.232 62.7767L97.2201 53.3277Z" fill="white" stroke="black" stroke-width="1.32" stroke-linecap="round" stroke-linejoin="round"/>
<path d="M100.404 55.3297L101.653 58.2716M101.189 57.1786L102.096 55.4837" stroke="black" stroke-width="1.32" stroke-linecap="round" stroke-linejoin="round"/>
<path fill-rule="evenodd" clip-rule="evenodd" d="M68.2021 65.6447L66.2371 66.1447C65.6957 66.2821 65.1931 66.542 64.768 66.9044C64.3429 67.2668 64.0068 67.722 63.7854 68.2349C63.5641 68.7477 63.4634 69.3046 63.4913 69.8625C63.5192 70.4204 63.6748 70.9644 63.9461 71.4527L64.0271 71.5987C64.7274 72.8615 65.7929 73.8833 67.084 74.5302C68.375 75.177 69.8313 75.4187 71.2621 75.2237L72.2141 75.0947L68.2021 65.6447Z" fill="white" stroke="black" stroke-width="1.32" stroke-linecap="round" stroke-linejoin="round"/>
<path d="M67.4321 69.3257L68.6811 72.2677M68.2161 71.1757L66.3671 70.6507" stroke="black" stroke-width="1.32" stroke-linecap="round" stroke-linejoin="round"/>
<path fill-rule="evenodd" clip-rule="evenodd" d="M95.3101 48.8417L99.7531 59.3057C103.155 67.3187 99.4191 76.5717 91.4091 79.9707C83.3981 83.3707 74.1461 79.6297 70.7441 71.6167L66.3011 61.1527C62.8991 53.1387 66.6341 43.8867 74.6451 40.4867C82.6561 37.0877 91.9081 40.8277 95.3101 48.8417Z" fill="white" stroke="black" stroke-width="1.32" stroke-linecap="round" stroke-linejoin="round"/>
<path d="M88.4422 72.0247C89.7487 71.4715 90.782 70.422 91.3148 69.107C91.8476 67.792 91.8362 66.3192 91.2831 65.0126M83.1191 62.7776L84.0981 66.7426L86.2872 66.2256" stroke="black" stroke-width="1.32" stroke-linecap="round" stroke-linejoin="round"/>
<path d="M75.3531 64.7637C76.9311 64.0947 77.8991 62.8187 77.5151 61.9137C77.1311 61.0087 75.5401 60.8177 73.9621 61.4877C72.3841 62.1577 71.4171 63.4337 71.8011 64.3387C72.1851 65.2427 73.7751 65.4337 75.3531 64.7637Z" stroke="black" stroke-width="0.73" stroke-linecap="round" stroke-linejoin="round"/>
<path d="M75.3531 64.7636C76.3001 64.3616 76.7561 63.3026 76.3721 62.3976C75.9881 61.4936 74.9091 61.0856 73.9621 61.4876C73.0161 61.8896 72.5602 62.9486 72.9442 63.8526C73.3282 64.7576 74.4071 65.1656 75.3531 64.7636Z" fill="black"/>
<path d="M91.1801 58.0467C92.7581 57.3767 93.7261 56.1007 93.3421 55.1957C92.9571 54.2907 91.3672 54.1007 89.7892 54.7697C88.2112 55.4397 87.2431 56.7157 87.6271 57.6207C88.0111 58.5257 89.6021 58.7157 91.1801 58.0467Z" stroke="black" stroke-width="0.73" stroke-linecap="round" stroke-linejoin="round"/>
<path d="M91.1801 58.0457C92.1271 57.6437 92.5831 56.5847 92.1991 55.6807C91.8151 54.7757 90.7361 54.3677 89.7891 54.7697C88.8421 55.1717 88.3861 56.2307 88.7701 57.1347C89.1541 58.0397 90.2331 58.4477 91.1801 58.0457Z" fill="black"/>
<path fill-rule="evenodd" clip-rule="evenodd" d="M79.0211 29.5297C81.5891 29.3077 83.0961 30.5997 83.5421 33.4027C86.6331 32.6367 89.5291 32.5107 92.2301 33.0267C98.2711 34.1807 100.536 40.7147 97.4891 46.5297C97.7521 47.9647 98.0461 49.7127 98.3721 51.7727C97.5241 52.6677 96.9241 53.0537 96.5741 52.9307C95.4506 52.5312 94.3862 51.9816 93.4101 51.2967C90.6881 53.4077 86.8841 55.0487 81.8751 55.7257C74.6221 56.7067 69.9001 55.7707 67.7101 52.9207C68.2191 57.4747 68.0811 61.4017 67.2961 64.7007C61.0661 61.1807 57.7671 57.2347 57.4001 52.8627C57.0761 49.0057 58.6451 46.8277 62.1051 46.3267C63.0341 40.8047 71.9271 30.1417 79.0211 29.5297Z" fill="black"/>
<path d="M67.2961 64.7006C61.6521 61.3746 57.7671 57.2336 57.4001 52.8626C57.0761 49.0056 58.6451 46.8266 62.1051 46.3266C63.0351 40.8036 71.9271 30.1416 79.0211 29.5296C81.5881 29.3076 83.0961 30.5986 83.5421 33.4026C86.6331 32.6356 89.5291 32.5107 92.2301 33.0267C97.5331 34.0397 98.9331 39.7787 97.3781 44.9577C97.7521 47.0317 98.0101 49.6376 98.3721 51.7716" stroke="white" stroke-width="0.88" stroke-linecap="round" stroke-linejoin="round"/>
<path d="M85.6281 166.951L81.8571 159.295" stroke="black" stroke-width="1.32" stroke-linecap="round" stroke-linejoin="round"/>
<path d="M78.4491 107.214L105.915 110.632L115.844 85.3796" stroke="black" stroke-width="1.32" stroke-linejoin="round"/>
<path fill-rule="evenodd" clip-rule="evenodd" d="M107.769 17.1497L110 62.6777L126.693 60.9496L112.243 77.8777L172.274 205.338L191.373 169.171L157.207 107.86L192.363 53.3546C200.265 41.1046 196.741 24.7626 184.494 16.8527C179.673 13.7376 173.967 12.28 168.242 12.7006L107.769 17.1497Z" fill="#EAEBED" stroke="black" stroke-width="1.32" stroke-linejoin="round"/>
<path d="M125.768 62.1027L135.412 49.9047" stroke="black" stroke-width="1.32" stroke-linecap="round" stroke-linejoin="round"/>
<path fill-rule="evenodd" clip-rule="evenodd" d="M123.562 65.0107L129.049 97.4786L137.069 95.8827C138.02 95.6936 139 95.703 139.947 95.9102C140.894 96.1175 141.788 96.5181 142.573 97.087C143.358 97.656 144.017 98.3809 144.509 99.2165C145.001 100.052 145.315 100.98 145.431 101.943L152.387 159.295" fill="#EAEBED"/>
<path d="M123.562 65.0107L129.049 97.4786L137.069 95.8827C138.02 95.6936 139 95.703 139.947 95.9102C140.894 96.1175 141.788 96.5181 142.573 97.087C143.358 97.656 144.017 98.3809 144.509 99.2165C145.001 100.052 145.315 100.98 145.431 101.943L152.387 159.295" stroke="black" stroke-width="1.32" stroke-linejoin="round"/>
<path fill-rule="evenodd" clip-rule="evenodd" d="M77.1961 101.88L130.808 223.976L110.913 233.112L83.7411 177.549L79.8431 194.646L41.9351 181.289L47.6551 126.999C47.969 124.016 49.0048 121.154 50.6729 118.661C52.3411 116.168 54.5913 114.119 57.2291 112.691L77.1961 101.88Z" fill="#EAEBED" stroke="black" stroke-width="1.32" stroke-linejoin="round"/>
<path d="M158.087 109.424L154.276 102.761" stroke="black" stroke-width="1.32" stroke-linecap="round" stroke-linejoin="round"/>
<path fill-rule="evenodd" clip-rule="evenodd" d="M63.9671 108.497L83.5051 131.106L78.5971 142.67C78.1349 143.759 77.9741 144.953 78.1313 146.126C78.2886 147.299 78.7583 148.408 79.4911 149.338L118.048 198.23" fill="#EAEBED"/>
<path d="M63.9671 108.497L83.5051 131.106L78.5971 142.67C78.1349 143.759 77.9741 144.953 78.1313 146.126C78.2886 147.299 78.7583 148.408 79.4911 149.338L118.048 198.23" stroke="black" stroke-width="1.32" stroke-linejoin="round"/>
</g>
<path fill-rule="evenodd" clip-rule="evenodd" d="M104.167 48.2217L56.6121 52.0917C54.971 52.2248 53.3411 51.7257 52.0558 50.6966C50.7706 49.6675 49.9272 48.1862 49.6981 46.5557C49.5871 45.7677 49.6325 44.9656 49.8316 44.1952C50.0306 43.4248 50.3795 42.7011 50.8583 42.0656C51.3371 41.43 51.9365 40.895 52.6221 40.4911C53.3077 40.0872 54.0661 39.8224 54.8541 39.7117L54.8811 39.7077L106.701 32.6647" fill="white"/>
<path d="M104.167 48.2217L56.6121 52.0917C54.971 52.2248 53.3411 51.7257 52.0558 50.6966C50.7706 49.6675 49.9272 48.1862 49.6981 46.5557C49.5871 45.7677 49.6325 44.9656 49.8316 44.1952C50.0306 43.4248 50.3795 42.7011 50.8583 42.0656C51.3371 41.43 51.9365 40.895 52.6221 40.4911C53.3077 40.0872 54.0661 39.8224 54.8541 39.7117L54.8811 39.7077L106.701 32.6647" stroke="black" stroke-width="1.716" stroke-linecap="round" stroke-linejoin="round"/>
<path fill-rule="evenodd" clip-rule="evenodd" d="M104.168 48.2206L70.8382 50.2226C69.1835 50.3217 67.5522 49.7939 66.2692 48.7442C64.9863 47.6946 64.1458 46.2002 63.9152 44.5586C63.8045 43.7719 63.8498 42.971 64.0486 42.2018C64.2474 41.4326 64.5958 40.7101 65.0738 40.0755C65.5518 39.4409 66.1502 38.9066 66.8347 38.5033C67.5192 38.0999 68.2764 37.8353 69.0632 37.7246L69.0992 37.7197L106.701 32.6656" fill="white"/>
<path d="M104.168 48.2206L70.8382 50.2226C69.1835 50.3217 67.5522 49.7939 66.2692 48.7442C64.9863 47.6946 64.1458 46.2002 63.9152 44.5586C63.8045 43.7719 63.8498 42.971 64.0486 42.2018C64.2474 41.4326 64.5958 40.7101 65.0738 40.0755C65.5518 39.4409 66.1502 38.9066 66.8347 38.5033C67.5192 38.0999 68.2764 37.8353 69.0632 37.7246L69.0992 37.7197L106.701 32.6656" stroke="black" stroke-width="1.32" stroke-linecap="round" stroke-linejoin="round"/>
<path d="M49.2782 142.837C49.6669 142.074 49.9015 141.242 49.9687 140.388C50.0359 139.535 49.9342 138.676 49.6696 137.862C49.405 137.047 48.9826 136.293 48.4265 135.642C47.8705 134.991 47.1916 134.456 46.4287 134.067C45.6657 133.678 44.8337 133.444 43.9801 133.377C43.1266 133.309 42.2681 133.411 41.4538 133.676C40.6394 133.94 39.8852 134.363 39.2341 134.919C38.5831 135.475 38.0479 136.154 37.6592 136.917L31.1442 149.703C30.7495 150.466 30.5098 151.3 30.4386 152.157C30.3675 153.013 30.4664 153.875 30.7296 154.693C30.9929 155.511 31.4153 156.27 31.9725 156.924C32.5298 157.578 33.2109 158.116 33.9767 158.506C34.7425 158.896 35.5779 159.131 36.4348 159.197C37.2917 159.263 38.1532 159.159 38.9698 158.891C39.7863 158.623 40.5419 158.196 41.1929 157.635C41.8439 157.074 42.3776 156.39 42.7632 155.622L49.2782 142.837Z" fill="white" stroke="black" stroke-width="1.32" stroke-linecap="round" stroke-linejoin="round"/>
<path d="M60.9012 148.758C61.3044 147.993 61.5517 147.156 61.6286 146.296C61.7056 145.435 61.6106 144.567 61.3494 143.744C61.0881 142.92 60.6657 142.156 60.1067 141.497C59.5478 140.838 58.8634 140.297 58.0933 139.904C57.3233 139.512 56.4829 139.277 55.6211 139.212C54.7593 139.148 53.8933 139.255 53.0734 139.528C52.2534 139.801 51.4959 140.234 50.8449 140.803C50.1939 141.371 49.6624 142.063 49.2812 142.839L42.7662 155.625C42.3716 156.388 42.1318 157.222 42.0606 158.079C41.9895 158.935 42.0884 159.797 42.3516 160.615C42.6149 161.434 43.0373 162.192 43.5945 162.846C44.1518 163.5 44.8329 164.038 45.5987 164.428C46.3645 164.818 47.1999 165.053 48.0568 165.119C48.9137 165.185 49.7752 165.081 50.5918 164.813C51.4083 164.545 52.1639 164.118 52.8149 163.557C53.4659 162.996 53.9996 162.312 54.3852 161.544L60.9012 148.758Z" fill="white" stroke="black" stroke-width="1.32" stroke-linecap="round" stroke-linejoin="round"/>
<path d="M72.5232 154.68C72.9178 153.916 73.1575 153.082 73.2287 152.226C73.2998 151.369 73.2009 150.507 72.9377 149.689C72.6744 148.871 72.2521 148.113 71.6948 147.459C71.1375 146.804 70.4564 146.267 69.6906 145.876C68.9248 145.486 68.0894 145.251 67.2325 145.185C66.3757 145.119 65.5141 145.223 64.6976 145.491C63.881 145.759 63.1255 146.186 62.4744 146.747C61.8234 147.308 61.2898 147.993 60.9042 148.761L54.3882 161.547C53.9849 162.311 53.7377 163.148 53.6607 164.009C53.5838 164.869 53.6787 165.737 53.94 166.561C54.2012 167.384 54.6236 168.148 55.1826 168.807C55.7416 169.466 56.426 170.008 57.196 170.4C57.9661 170.792 58.8064 171.027 59.6682 171.092C60.53 171.157 61.396 171.049 62.2159 170.776C63.0359 170.503 63.7934 170.07 64.4444 169.502C65.0954 168.933 65.627 168.241 66.0082 167.466L72.5232 154.68Z" fill="white" stroke="black" stroke-width="1.32" stroke-linecap="round" stroke-linejoin="round"/>
<path d="M84.1451 160.602C84.5398 159.838 84.7795 159.004 84.8507 158.148C84.9218 157.291 84.8229 156.429 84.5597 155.611C84.2964 154.793 83.874 154.035 83.3168 153.381C82.7595 152.726 82.0784 152.189 81.3126 151.798C80.5468 151.408 79.7114 151.173 78.8545 151.107C77.9976 151.041 77.1361 151.145 76.3195 151.413C75.503 151.681 74.7474 152.108 74.0964 152.669C73.4454 153.23 72.9118 153.915 72.5262 154.683L66.0112 167.468C65.6224 168.231 65.3878 169.063 65.3206 169.916C65.2535 170.77 65.3551 171.628 65.6197 172.443C65.8843 173.257 66.3067 174.011 66.8628 174.662C67.4188 175.313 68.0977 175.848 68.8606 176.237C69.6236 176.626 70.4556 176.861 71.3092 176.928C72.1628 176.995 73.0212 176.893 73.8356 176.629C74.6499 176.364 75.4041 175.942 76.0552 175.386C76.7063 174.829 77.2414 174.151 77.6301 173.388L84.1451 160.602Z" fill="white" stroke="black" stroke-width="1.32" stroke-linecap="round" stroke-linejoin="round"/>
</svg>
